<svg id="AAPLDE" xmlns="http://www.w3.org/2000/svg" width="70" height="70" viewBox="0 0 70 70">
  <rect id="Rectangle_13501" data-name="Rectangle 13501" width="70" height="70" fill="rgba(11,239,160,0.47)" opacity="0"/>
  <g id="apple-seeklogo.com" transform="translate(13.862 9.04)">
    <path id="Path_40249" data-name="Path 40249" d="M35.307,27.583a11.476,11.476,0,0,0,6.968,10.505,28.413,28.413,0,0,1-3.593,7.385c-2.164,3.163-4.41,6.314-7.948,6.379-3.476.064-4.594-2.062-8.569-2.062s-5.215,2-8.506,2.126c-3.415.129-6.016-3.42-8.2-6.571C1,38.9-2.4,27.13,2.171,19.186a12.71,12.71,0,0,1,10.743-6.507c3.354-.064,6.519,2.256,8.569,2.256s5.9-2.79,9.939-2.38a12.129,12.129,0,0,1,9.5,5.15,11.742,11.742,0,0,0-5.611,9.879M28.774,8.29A11.436,11.436,0,0,0,31.474,0a11.639,11.639,0,0,0-7.648,3.935,10.866,10.866,0,0,0-2.754,8.031,9.629,9.629,0,0,0,7.7-3.676"/>
  </g>
</svg>
