<svg id="ADAUSD" xmlns="http://www.w3.org/2000/svg" xmlns:xlink="http://www.w3.org/1999/xlink" width="70" height="70" viewBox="0 0 70 70">
  <defs>
    <clipPath id="clip-path">
      <circle id="Ellipse_257" data-name="Ellipse 257" cx="30" cy="30" r="30" transform="translate(1498 2798)" fill="#fff" stroke="#707070" stroke-width="1"/>
    </clipPath>
    <clipPath id="clip-path-2">
      <rect id="Rectangle_19472" data-name="Rectangle 19472" width="45.828" height="42.345" fill="#fff"/>
    </clipPath>
  </defs>
  <rect id="Rectangle_13501" data-name="Rectangle 13501" width="70" height="70" fill="rgba(11,239,160,0.47)" opacity="0"/>
  <circle id="Ellipse_255" data-name="Ellipse 255" cx="30" cy="30" r="30" transform="translate(5 5)" fill="#0133ad"/>
  <g id="Mask_Group_100" data-name="Mask Group 100" transform="translate(-1493 -2793)" clip-path="url(#clip-path)">
    <g id="Group_30107" data-name="Group 30107" transform="translate(197.086 -258.807)">
      <g id="Group_30106" data-name="Group 30106" transform="translate(1308 3065.354)">
        <g id="Group_30105" data-name="Group 30105" clip-path="url(#clip-path-2)">
          <path id="Path_47500" data-name="Path 47500" d="M74.438,110.3a3.092,3.092,0,0,0,2.907,3.264h.169a3.085,3.085,0,1,0-3.084-3.262Z" transform="translate(-61.881 -89.291)" fill="#fff"/>
          <path id="Path_47501" data-name="Path 47501" d="M1.052,119.99a1,1,0,1,0,.939,1.052,1,1,0,0,0-.939-1.052h0" transform="translate(0 -99.759)" fill="#fff"/>
          <path id="Path_47502" data-name="Path 47502" d="M66.149,9.127a1.005,1.005,0,1,0-.007,0l.007,0" transform="translate(-53.787 -6.02)" fill="#fff"/>
          <path id="Path_47503" data-name="Path 47503" d="M80.867,36.422a1.541,1.541,0,1,0-2.07-.683,1.541,1.541,0,0,0,2.07.683h0" transform="translate(-65.375 -27.856)" fill="#fff"/>
          <path id="Path_47504" data-name="Path 47504" d="M26.579,61.586a1.27,1.27,0,1,0-.363-1.758v0a1.27,1.27,0,0,0,.364,1.757" transform="translate(-21.622 -49.265)" fill="#fff"/>
          <path id="Path_47505" data-name="Path 47505" d="M32.5,116.656a1.541,1.541,0,1,0,1.452,1.627,1.541,1.541,0,0,0-1.452-1.627" transform="translate(-25.67 -96.986)" fill="#fff"/>
          <path id="Path_47506" data-name="Path 47506" d="M26.962,177.443a1.27,1.27,0,1,0,1.706.561,1.269,1.269,0,0,0-1.706-.561h0" transform="translate(-21.837 -147.414)" fill="#fff"/>
          <path id="Path_47507" data-name="Path 47507" d="M61.884,81.349a1.814,1.814,0,1,0-.523-2.512,1.814,1.814,0,0,0,.523,2.512l0,0" transform="translate(-50.768 -64.864)" fill="#fff"/>
          <path id="Path_47508" data-name="Path 47508" d="M175.195,36.108a1.543,1.543,0,1,0-.448-2.136,1.543,1.543,0,0,0,.448,2.136l0,0" transform="translate(-145.075 -27.664)" fill="#fff"/>
          <path id="Path_47509" data-name="Path 47509" d="M195.186,8.769a1,1,0,1,0-.288-1.382h0a1,1,0,0,0,.288,1.381" transform="translate(-161.903 -5.767)" fill="#fff"/>
          <path id="Path_47510" data-name="Path 47510" d="M164,107.192a3.086,3.086,0,1,0-.354,6.162h.179a3.085,3.085,0,0,0,2.3-5.14A3.048,3.048,0,0,0,164,107.192" transform="translate(-133.635 -89.116)" fill="#fff"/>
          <path id="Path_47511" data-name="Path 47511" d="M96.288,74.467a3.087,3.087,0,1,0-.327-1.377,3.074,3.074,0,0,0,.327,1.377" transform="translate(-79.782 -58.196)" fill="#fff"/>
          <path id="Path_47512" data-name="Path 47512" d="M232.318,61.207a1.27,1.27,0,1,0-1.706-.563,1.269,1.269,0,0,0,1.706.563" transform="translate(-191.619 -48.89)" fill="#fff"/>
          <path id="Path_47513" data-name="Path 47513" d="M190.066,77.927a1.814,1.814,0,1,0,2.436.8,1.814,1.814,0,0,0-2.436-.8l0,0" transform="translate(-157.192 -64.627)" fill="#fff"/>
          <path id="Path_47514" data-name="Path 47514" d="M129.305,2.537a1.27,1.27,0,1,0-1.2-1.34h0a1.269,1.269,0,0,0,1.2,1.339" transform="translate(-106.51 0)" fill="#fff"/>
          <path id="Path_47515" data-name="Path 47515" d="M126.685,44.56a1.814,1.814,0,1,0-1.71-1.915,1.814,1.814,0,0,0,1.71,1.915" transform="translate(-103.903 -34.033)" fill="#fff"/>
          <path id="Path_47516" data-name="Path 47516" d="M63.855,155.342a1.814,1.814,0,1,0-2.437-.8h0a1.814,1.814,0,0,0,2.436.8" transform="translate(-50.902 -126.297)" fill="#fff"/>
          <path id="Path_47517" data-name="Path 47517" d="M139.59,71.262a3.086,3.086,0,1,0,2.585-1.394,3.085,3.085,0,0,0-2.585,1.394" transform="translate(-115.636 -58.089)" fill="#fff"/>
          <path id="Path_47518" data-name="Path 47518" d="M145.1,146.3a3.085,3.085,0,1,0-2.755,4.475,3.119,3.119,0,0,0,1.389-.337A3.087,3.087,0,0,0,145.1,146.3" transform="translate(-115.778 -120.224)" fill="#fff"/>
          <path id="Path_47519" data-name="Path 47519" d="M192.024,151.92a1.814,1.814,0,1,0,.521,2.512,1.814,1.814,0,0,0-.521-2.512" transform="translate(-157.313 -126.059)" fill="#fff"/>
          <path id="Path_47520" data-name="Path 47520" d="M225.734,117.871a1.541,1.541,0,1,0-1.627,1.452,1.541,1.541,0,0,0,1.627-1.452" transform="translate(-185.116 -96.645)" fill="#fff"/>
          <path id="Path_47521" data-name="Path 47521" d="M261.035,119.38a1,1,0,1,0,.939,1.054,1,1,0,0,0-.939-1.054" transform="translate(-216.149 -99.251)" fill="#fff"/>
          <path id="Path_47522" data-name="Path 47522" d="M232.709,177.064a1.27,1.27,0,1,0,.366,1.758,1.269,1.269,0,0,0-.366-1.758h0" transform="translate(-191.841 -147.039)" fill="#fff"/>
          <path id="Path_47523" data-name="Path 47523" d="M66.777,232.55a1,1,0,1,0,.287,1.382,1,1,0,0,0-.287-1.382h0" transform="translate(-54.234 -193.207)" fill="#fff"/>
          <path id="Path_47524" data-name="Path 47524" d="M195.772,232.207a1,1,0,1,0,1.34.442h0a1,1,0,0,0-1.338-.443h0" transform="translate(-162.309 -192.969)" fill="#fff"/>
          <path id="Path_47525" data-name="Path 47525" d="M101.778,149.442a3.086,3.086,0,1,0-2.583,1.394,3.085,3.085,0,0,0,2.583-1.394" transform="translate(-79.908 -120.276)" fill="#fff"/>
          <path id="Path_47526" data-name="Path 47526" d="M81.39,199.847a1.541,1.541,0,1,0,.445,2.134,1.541,1.541,0,0,0-.445-2.134" transform="translate(-65.685 -165.945)" fill="#fff"/>
          <path id="Path_47527" data-name="Path 47527" d="M129.2,236.108a1.27,1.27,0,1,0,1.2,1.34,1.269,1.269,0,0,0-1.2-1.34h0" transform="translate(-106.305 -196.299)" fill="#fff"/>
          <path id="Path_47528" data-name="Path 47528" d="M126.411,188.721a1.814,1.814,0,1,0,1.7,1.921v-.007a1.813,1.813,0,0,0-1.7-1.914" transform="translate(-103.499 -156.901)" fill="#fff"/>
          <path id="Path_47529" data-name="Path 47529" d="M175.743,199.527a1.543,1.543,0,1,0,2.074.678l0,0a1.539,1.539,0,0,0-2.069-.676h0" transform="translate(-145.411 -165.748)" fill="#fff"/>
        </g>
      </g>
    </g>
  </g>
</svg>
