<svg id="RPLUSD" xmlns="http://www.w3.org/2000/svg" xmlns:xlink="http://www.w3.org/1999/xlink" width="70" height="70" viewBox="0 0 70 70">
  <defs>
    <linearGradient id="linear-gradient" y1="0.5" x2="0.951" y2="0.5" gradientUnits="objectBoundingBox">
      <stop offset="0" stop-color="#51a7dc"/>
      <stop offset="1" stop-color="#2c6295"/>
    </linearGradient>
    <clipPath id="clip-path">
      <path id="Path_47499" data-name="Path 47499" d="M46.34,0a12.923,12.923,0,0,0-6.677,1.745h0a13.7,13.7,0,0,0-6.786,11.793,15.4,15.4,0,0,0,2.264,7.278c1.005,2.011,1.5,5.52-2.011,7.278a5.375,5.375,0,0,1-7.278-2.011,22.654,22.654,0,0,0-5.521-5.52,13.164,13.164,0,0,0-13.552,0,13.664,13.664,0,0,0,0,23.605,13.164,13.164,0,0,0,13.552,0,13.832,13.832,0,0,0,5.268-5.52,5.167,5.167,0,0,1,7.279-2.011,5.623,5.623,0,0,1,2.011,7.278A15.122,15.122,0,0,0,32.876,51.2,13.648,13.648,0,0,0,39.662,62.99a13.337,13.337,0,0,0,6.765,1.878h.022a13.339,13.339,0,0,0,6.765-1.878,13.646,13.646,0,0,0,0-23.593,15.154,15.154,0,0,0-7.532-1.758,5.267,5.267,0,1,1,0-10.535,15.817,15.817,0,0,0,7.532-1.758,13.641,13.641,0,0,0,0-23.586A13,13,0,0,0,46.436,0h-.1Z" transform="translate(0 -0.003)" stroke="rgba(0,0,0,0)" stroke-width="1" fill="url(#linear-gradient)"/>
    </clipPath>
  </defs>
  <rect id="Rectangle_13501" data-name="Rectangle 13501" width="70" height="70" fill="rgba(11,239,160,0.47)" opacity="0"/>
  <g id="Group_30104" data-name="Group 30104" transform="translate(5 2.997)">
    <g id="Group_30104-2" data-name="Group 30104" transform="translate(0 0.003)" clip-path="url(#clip-path)">
      <path id="Rectangle_19471" data-name="Rectangle 19471" d="M15,0H45A15,15,0,0,1,60,15V64.865a0,0,0,0,1,0,0H0a0,0,0,0,1,0,0V15A15,15,0,0,1,15,0Z" transform="translate(0 0)" stroke="rgba(0,0,0,0)" stroke-width="1" fill="url(#linear-gradient)"/>
    </g>
  </g>
</svg>
