<svg xmlns="http://www.w3.org/2000/svg" xmlns:xlink="http://www.w3.org/1999/xlink" width="32.763" height="36" viewBox="0 0 32.763 36"><defs><style>.a{fill:url(#a);}.b{fill:url(#b);}.c{fill:url(#c);}.d{fill:url(#d);}.e{fill:url(#e);}</style><linearGradient id="a" x1="0.12" y1="0.155" x2="0.88" y2="0.845" gradientUnits="objectBoundingBox"><stop offset="0" stop-color="#a0762f"/><stop offset="0.2" stop-color="#fdc778"/><stop offset="0.5" stop-color="#ebcb88"/><stop offset="0.8" stop-color="#bb914a"/><stop offset="1" stop-color="#a0762f"/></linearGradient><linearGradient id="b" x1="-0.346" y1="0.215" x2="1.346" y2="0.785" xlink:href="#a"/><linearGradient id="c" x1="-0.567" y1="0.223" x2="1.567" y2="0.777" xlink:href="#a"/><linearGradient id="d" x1="-0.567" y1="0.223" x2="1.567" y2="0.777" xlink:href="#a"/><linearGradient id="e" x1="-0.567" y1="0.223" x2="1.567" y2="0.777" xlink:href="#a"/></defs><g transform="translate(281.044 -372.796)"><path class="a" d="M-264.662,408.8a5.9,5.9,0,0,1-2.952-.789l-10.479-6.05a5.918,5.918,0,0,1-2.951-5.111v-12.1a5.919,5.919,0,0,1,2.952-5.112l10.478-6.05a5.92,5.92,0,0,1,5.9,0l10.479,6.05a5.92,5.92,0,0,1,2.951,5.112v12.1a5.918,5.918,0,0,1-2.951,5.111l-10.479,6.05A5.9,5.9,0,0,1-264.662,408.8Zm0-34.264a4.163,4.163,0,0,0-2.083.556l-10.479,6.05a4.177,4.177,0,0,0-2.083,3.608v12.1a4.178,4.178,0,0,0,2.083,3.608l10.479,6.049a4.175,4.175,0,0,0,4.165,0l10.479-6.049a4.178,4.178,0,0,0,2.083-3.608v-12.1a4.178,4.178,0,0,0-2.082-3.608h0l-10.479-6.05A4.16,4.16,0,0,0-264.662,374.532Z"/><path class="b" d="M-269.638,395.341a1.455,1.455,0,0,1-1.455,1.454,1.454,1.454,0,0,1-1.454-1.454v-5.732a1.455,1.455,0,0,1,1.454-1.455,1.456,1.456,0,0,1,1.455,1.455Z"/><rect class="c" width="2.909" height="11.214" rx="1.454" transform="translate(-268.26 383.392)"/><path class="d" d="M-261.064,396.745a1.456,1.456,0,0,1-1.455,1.455,1.455,1.455,0,0,1-1.454-1.455v-8.3a1.454,1.454,0,0,1,1.454-1.455,1.455,1.455,0,0,1,1.455,1.455Z"/><path class="e" d="M-256.777,393.152a1.456,1.456,0,0,1-1.455,1.455,1.455,1.455,0,0,1-1.454-1.455v-8.305a1.454,1.454,0,0,1,1.454-1.455,1.455,1.455,0,0,1,1.455,1.455Z"/></g></svg>