<svg xmlns="http://www.w3.org/2000/svg" xmlns:xlink="http://www.w3.org/1999/xlink" width="36.449" height="36" viewBox="0 0 36.449 36"><defs><style>.a{fill:url(#a);}.b{fill:url(#b);}.c{fill:url(#c);}.d{fill:url(#d);}.e{fill:url(#e);}.f{fill:url(#f);}.g{fill:url(#g);}.h{fill:url(#h);}.i{fill:url(#i);}.j{fill:url(#j);}.k{fill:url(#k);}.l{fill:url(#l);}.m{fill:url(#m);}</style><linearGradient id="a" x1="-0.498" y1="-0.277" x2="3.534" y2="2.625" gradientUnits="objectBoundingBox"><stop offset="0" stop-color="#a0762f"/><stop offset="0.2" stop-color="#fdc778"/><stop offset="0.5" stop-color="#ebcb88"/><stop offset="0.8" stop-color="#bb914a"/><stop offset="1" stop-color="#a0762f"/></linearGradient><linearGradient id="b" x1="-1.289" y1="-1.05" x2="2.344" y2="2.293" xlink:href="#a"/><linearGradient id="c" x1="-1.561" y1="-2.34" x2="1.376" y2="1.691" xlink:href="#a"/><linearGradient id="d" x1="-2.143" y1="-3.037" x2="0.996" y2="0.995" xlink:href="#a"/><linearGradient id="e" x1="-2.947" y1="-1.94" x2="1.087" y2="1.065" xlink:href="#a"/><linearGradient id="f" x1="-2.081" y1="-1.463" x2="1.949" y2="1.541" xlink:href="#a"/><linearGradient id="g" x1="-0.785" y1="-1.264" x2="2.353" y2="2.765" xlink:href="#a"/><linearGradient id="h" x1="-0.18" y1="-0.287" x2="2.747" y2="3.745" xlink:href="#a"/><linearGradient id="i" x1="0.007" y1="0.006" x2="3.641" y2="3.35" xlink:href="#a"/><linearGradient id="j" x1="-6.697" y1="-1.4" x2="5.55" y2="1.834" xlink:href="#a"/><linearGradient id="k" x1="-6.513" y1="-1.351" x2="5.739" y2="1.883" xlink:href="#a"/><linearGradient id="l" x1="-5.229" y1="-1.016" x2="6.995" y2="2.219" xlink:href="#a"/><linearGradient id="m" x1="-5.09" y1="-1.514" x2="7.155" y2="2.898" xlink:href="#a"/></defs><path class="a" d="M429.345,6.756V8.779a.723.723,0,0,0,1.446,0V6.756a3.424,3.424,0,1,0-1.446,0m.723-5.325a1.98,1.98,0,1,1-1.977,1.98,1.98,1.98,0,0,1,1.977-1.98" transform="translate(-411.845 0.015)"/><path class="b" d="M684.289,109.556a.719.719,0,0,0,.555-.256l1.3-1.547a3.434,3.434,0,1,0-1.1-.932l-1.3,1.55a.722.722,0,0,0,.552,1.186m1.936-6.105a1.977,1.977,0,1,1-.457,1.445,1.979,1.979,0,0,1,.457-1.445" transform="translate(-659.857 -97.781)"/><path class="c" d="M789.087,360.813a3.424,3.424,0,0,0-6.178-1.368,3.375,3.375,0,0,0-.616,1.834l-1.991.35a.723.723,0,0,0,.251,1.422l1.994-.35a3.423,3.423,0,0,0,6.54-1.887m-1.752,1.73h0a1.979,1.979,0,1,1-1.965-3.084,2.081,2.081,0,0,1,.347-.031,1.98,1.98,0,0,1,1.616,3.115" transform="translate(-752.69 -345.564)"/><path class="d" d="M752.781,650.289a3.42,3.42,0,0,0-4.248.669l-1.751-1.013a.724.724,0,1,0-.724,1.253l1.753,1.011a3.424,3.424,0,1,0,4.971-1.92m0,3.957a1.969,1.969,0,1,1,.2-1.5,1.977,1.977,0,0,1-.2,1.5" transform="translate(-719.83 -627.288)"/><path class="e" d="M577.922,775.2l-.692-1.9a.722.722,0,1,0-1.357.494l.691,1.9a3.421,3.421,0,1,0,1.358-.5m2.259,4.227a1.977,1.977,0,1,1-1.794-2.815,2.006,2.006,0,0,1,.837.186,1.977,1.977,0,0,1,.957,2.63" transform="translate(-555.023 -746.016)"/><path class="f" d="M283.639,775.7l.691-1.9a.723.723,0,1,0-1.358-.494l-.694,1.9a3.423,3.423,0,0,0-1.636,6.608,3.376,3.376,0,0,0,1.17.208,3.424,3.424,0,0,0,1.826-6.322m-.987,4.69a1.979,1.979,0,1,1-.832-3.774,2.021,2.021,0,0,1,.675.119,1.98,1.98,0,0,1,.158,3.654" transform="translate(-268.731 -746.021)"/><path class="g" d="M59.868,651.19a.723.723,0,1,0-.723-1.251l-1.754,1.013a3.424,3.424,0,1,0-3.42,5.608,3.476,3.476,0,0,0,.892.118,3.427,3.427,0,0,0,3.253-4.475Zm-3.1,2.571a1.981,1.981,0,1,1-.2-1.5,1.981,1.981,0,0,1,.2,1.5" transform="translate(-49.648 -627.282)"/><path class="h" d="M3.436,364.9A3.436,3.436,0,0,0,6.6,362.764l1.988.351a.724.724,0,0,0,.253-1.425l-1.991-.348a3.424,3.424,0,1,0-4.015,3.5,3.587,3.587,0,0,0,.6.051m1.132-1.8a1.955,1.955,0,0,1-1.478.327,1.98,1.98,0,0,1,.343-3.929,1.914,1.914,0,0,1,.344.032,1.977,1.977,0,0,1,.791,3.57" transform="translate(-0.009 -345.627)"/><path class="i" d="M151.613,108.3a3.429,3.429,0,0,0,1.6-.4l1.3,1.548a.723.723,0,1,0,1.107-.929l-1.3-1.55a3.423,3.423,0,1,0-2.7,1.326m0-5.4a1.977,1.977,0,1,1-1.271.462,1.977,1.977,0,0,1,1.271-.462" transform="translate(-143.045 -97.934)"/><path class="j" d="M634.647,381.681a1.118,1.118,0,0,0-1.127,1.11v6.321a1.127,1.127,0,0,0,2.254,0V382.79a1.118,1.118,0,0,0-1.128-1.11" transform="translate(-611.545 -368.44)"/><path class="k" d="M539.015,453.08a1.118,1.118,0,0,0-1.125,1.107v6.324a1.127,1.127,0,0,0,2.253,0v-6.324a1.119,1.119,0,0,0-1.128-1.107" transform="translate(-519.232 -437.363)"/><path class="l" d="M445.239,381.681a1.118,1.118,0,0,0-1.129,1.11v6.321a1.13,1.13,0,0,0,2.259,0V382.79a1.12,1.12,0,0,0-1.129-1.11" transform="translate(-428.705 -368.44)"/><path class="m" d="M353.447,486.91a1.119,1.119,0,0,0-1.127,1.107v4.044a1.128,1.128,0,0,0,2.255,0v-4.044a1.117,1.117,0,0,0-1.128-1.107" transform="translate(-340.099 -470.02)"/></svg>